<?xml version="1.0" standalone="no"?>
<!DOCTYPE svg PUBLIC "-//W3C//DTD SVG 20010904//EN"
 "http://www.w3.org/TR/2001/REC-SVG-20010904/DTD/svg10.dtd">
<svg version="1.0" xmlns="http://www.w3.org/2000/svg"
 width="88.000000pt" height="82.000000pt" viewBox="0 0 88.000000 82.000000"
 preserveAspectRatio="xMidYMid meet">
<metadata>
Created by potrace 1.10, written by Peter Selinger 2001-2011
</metadata>
<g transform="translate(0.000000,82.000000) scale(0.100000,-0.100000)"
fill="#000000" stroke="none">
<path d="M403 683 c-32 -16 -33 -18 -30 -72 2 -49 0 -56 -16 -53 -19 3 -47
-14 -47 -29 0 -5 16 -9 35 -9 l35 0 0 -165 c0 -155 1 -166 21 -186 18 -18 28
-20 62 -15 23 4 56 18 74 32 35 27 45 51 16 39 -102 -41 -103 -40 -103 146 l0
148 57 3 c47 2 58 7 61 21 3 17 -2 19 -57 15 l-61 -3 0 73 c0 39 -3 72 -7 71
-5 0 -23 -8 -40 -16z"/>
</g>
</svg>
